<?xml version="1.0" encoding="utf-8"?>
<!-- Generator: Adobe Illustrator 25.0.0, SVG Export Plug-In . SVG Version: 6.00 Build 0)  -->
<svg version="1.1" id="Capa_1" xmlns="http://www.w3.org/2000/svg" xmlns:xlink="http://www.w3.org/1999/xlink" x="0px"
     y="0px"
     viewBox="0 0 480 480" style="enable-background:new 0 0 480 480;" xml:space="preserve">
<g>
	<g>
		<path d="M473.8,100.2c-4.3-1-8.6,1.7-9.6,6c0,0,0,0,0,0l-30.8,133.6c-9.1,40-44.7,68.4-85.7,68.2H100.1L72.8,71.4
			C70.4,51.2,53.3,36,33,36H8c-4.4,0-8,3.6-8,8s3.6,8,8,8h25c12.2,0,22.4,9.1,23.8,21.2l35.9,311.4c2.2,18.7,17.2,33.3,35.9,35.1
			c4.3,26.1,28.9,43.9,55,39.6c20.2-3.3,36.1-19.1,39.6-39.3h81.4c4.4,26.1,29.2,43.7,55.3,39.3s43.7-29.2,39.3-55.3
			s-29.2-43.7-55.3-39.3c-20.1,3.4-35.9,19.2-39.3,39.3h-81.4c-4.4-26.1-29.2-43.7-55.3-39.3c-20,3.4-35.7,19-39.2,38.9
			c-10.6-1.6-18.9-10.2-20.1-20.9l-6.8-58.8h245.7c48.5,0.2,90.6-33.3,101.3-80.6l30.8-133.6C480.8,105.5,478.1,101.2,473.8,100.2z
			 M352,380c17.7,0,32,14.3,32,32s-14.3,32-32,32s-32-14.3-32-32C320,394.3,334.3,380,352,380z M176,380c17.7,0,32,14.3,32,32
			s-14.3,32-32,32s-32-14.3-32-32C144,394.3,158.3,380,176,380z"/>
	</g>
</g>
</svg>
