<?xml version="1.0" encoding="iso-8859-1"?>
<!-- Generator: Adobe Illustrator 19.0.0, SVG Export Plug-In . SVG Version: 6.00 Build 0)  -->
<svg version="1.1" id="Capa_1" xmlns="http://www.w3.org/2000/svg" xmlns:xlink="http://www.w3.org/1999/xlink" x="0px"
     y="0px"
     viewBox="0 0 424.91 424.91" style="enable-background:new 0 0 424.91 424.91;" xml:space="preserve">
<g>
	<g>
		<path d="M422.664,411.352L306.84,295.528c65.735-71.982,60.67-183.623-11.312-249.358S111.905-14.5,46.17,57.482
			S-14.5,241.105,57.482,306.84c67.409,61.559,170.637,61.559,238.046,0l115.824,115.824c3.178,3.07,8.242,2.982,11.312-0.196
			C425.659,419.368,425.659,414.452,422.664,411.352z M177.008,337.008c-88.323-0.101-159.899-71.677-160-160
			c0-88.366,71.634-160,160-160s160,71.634,160,160S265.374,337.008,177.008,337.008z"/>
	</g>
</g>
    <g>
</g>
    <g>
</g>
    <g>
</g>
    <g>
</g>
    <g>
</g>
    <g>
</g>
    <g>
</g>
    <g>
</g>
    <g>
</g>
    <g>
</g>
    <g>
</g>
    <g>
</g>
    <g>
</g>
    <g>
</g>
    <g>
</g>
</svg>
