<svg width="95" height="60" viewBox="0 0 95 60" fill="none" xmlns="http://www.w3.org/2000/svg">
<path d="M30 60C46.5685 60 60 46.5685 60 30C60 13.4315 46.5685 0 30 0C13.4315 0 0 13.4315 0 30C0 46.5685 13.4315 60 30 60Z" fill="#F91111"/>
<path d="M29.8 38.56C29.8 38.56 32.86 40.54 38.26 40.54C43.84 40.54 47.26 37.84 47.26 33.16C47.26 28.84 44.164 27.256 41.86 26.32L36.28 23.98C34.48 23.26 33.4 22.36 33.4 20.74C33.4 18.94 35.02 17.14 38.08 17.14C40.24 17.14 41.32 17.68 41.32 17.68L46 25.42V17.68C46 17.68 43.48 16.06 37.9 16.06C32.68 16.06 29.44 18.94 29.44 22.9C29.44 25.924 31.204 28.084 34.48 29.38L40.24 31.72C41.86 32.368 43.12 33.34 43.12 35.32C43.12 37.66 41.14 39.46 38.26 39.46C35.56 39.46 34.48 38.74 34.48 38.74L29.8 31V38.56ZM50.507 38.56C50.507 38.56 53.567 40.54 58.967 40.54C64.547 40.54 67.967 37.84 67.967 33.16C67.967 28.84 64.871 27.256 62.567 26.32L56.987 23.98C55.187 23.26 54.107 22.36 54.107 20.74C54.107 18.94 55.727 17.14 58.787 17.14C60.947 17.14 62.027 17.68 62.027 17.68L66.707 25.42V17.68C66.707 17.68 64.187 16.06 58.607 16.06C53.387 16.06 50.147 18.94 50.147 22.9C50.147 25.924 51.911 28.084 55.187 29.38L60.947 31.72C62.567 32.368 63.827 33.34 63.827 35.32C63.827 37.66 61.847 39.46 58.967 39.46C56.267 39.46 55.187 38.74 55.187 38.74L50.507 31V38.56ZM67.9642 40H77.0722L73.4002 37.48L75.2722 32.62H83.1922L85.3522 38.2L82.6522 40H94.2442L91.0042 37.84L82.7962 16.6H74.8042L78.5482 20.56L72.1042 37.3L67.9642 40ZM79.2322 22.36L82.6882 31.36H75.7402L79.2322 22.36Z" fill="black"/>
<path d="M28 43.6H94.2442V45.4H28V43.6Z" fill="black"/>
</svg>
