<svg width="95" height="60" viewBox="0 0 95 60" fill="none" xmlns="http://www.w3.org/2000/svg">
<path d="M30 60C46.5685 60 60 46.5685 60 30C60 13.4315 46.5685 0 30 0C13.4315 0 0 13.4315 0 30C0 46.5685 13.4315 60 30 60Z" fill="#F91111"/>
<path d="M29.8 39.56C29.8 39.56 32.86 41.54 38.26 41.54C43.84 41.54 47.26 38.84 47.26 34.16C47.26 29.84 44.164 28.256 41.86 27.32L36.28 24.98C34.48 24.26 33.4 23.36 33.4 21.74C33.4 19.94 35.02 18.14 38.08 18.14C40.24 18.14 41.32 18.68 41.32 18.68L46 26.42V18.68C46 18.68 43.48 17.06 37.9 17.06C32.68 17.06 29.44 19.94 29.44 23.9C29.44 26.924 31.204 29.084 34.48 30.38L40.24 32.72C41.86 33.368 43.12 34.34 43.12 36.32C43.12 38.66 41.14 40.46 38.26 40.46C35.56 40.46 34.48 39.74 34.48 39.74L29.8 32V39.56ZM50.507 39.56C50.507 39.56 53.567 41.54 58.967 41.54C64.547 41.54 67.967 38.84 67.967 34.16C67.967 29.84 64.871 28.256 62.567 27.32L56.987 24.98C55.187 24.26 54.107 23.36 54.107 21.74C54.107 19.94 55.727 18.14 58.787 18.14C60.947 18.14 62.027 18.68 62.027 18.68L66.707 26.42V18.68C66.707 18.68 64.187 17.06 58.607 17.06C53.387 17.06 50.147 19.94 50.147 23.9C50.147 26.924 51.911 29.084 55.187 30.38L60.947 32.72C62.567 33.368 63.827 34.34 63.827 36.32C63.827 38.66 61.847 40.46 58.967 40.46C56.267 40.46 55.187 39.74 55.187 39.74L50.507 32V39.56ZM67.9642 41H77.0722L73.4002 38.48L75.2722 33.62H83.1922L85.3522 39.2L82.6522 41H94.2442L91.0042 38.84L82.7962 17.6H74.8042L78.5482 21.56L72.1042 38.3L67.9642 41ZM79.2322 23.36L82.6882 32.36H75.7402L79.2322 23.36Z" fill="black"/>
</svg>
