<svg width="95" height="60" viewBox="0 0 95 60" fill="none" xmlns="http://www.w3.org/2000/svg">
    <circle cx="30" cy="30" r="30" fill="#F91111"/>
    <path d="M41.5566 35.2852C41.5566 34.2891 41.2051 33.5273 40.502 33C39.7988 32.4609 38.5332 31.8984 36.7051 31.3125C34.877 30.7148 33.4297 30.1289 32.3633 29.5547C29.457 27.9844 28.0039 25.8691 28.0039 23.209C28.0039 21.8262 28.3906 20.5957 29.1641 19.5176C29.9492 18.4277 31.0684 17.5781 32.5215 16.9688C33.9863 16.3594 35.627 16.0547 37.4434 16.0547C39.2715 16.0547 40.9004 16.3887 42.3301 17.0566C43.7598 17.7129 44.8672 18.6445 45.6523 19.8516C46.4492 21.0586 46.8477 22.4297 46.8477 23.9648H41.5742C41.5742 22.793 41.2051 21.8848 40.4668 21.2402C39.7285 20.584 38.6914 20.2559 37.3555 20.2559C36.0664 20.2559 35.0645 20.5312 34.3496 21.082C33.6348 21.6211 33.2773 22.3359 33.2773 23.2266C33.2773 24.0586 33.6934 24.7559 34.5254 25.3184C35.3691 25.8809 36.6055 26.4082 38.2344 26.9004C41.2344 27.8027 43.4199 28.9219 44.791 30.2578C46.1621 31.5938 46.8477 33.2578 46.8477 35.25C46.8477 37.4648 46.0098 39.2051 44.334 40.4707C42.6582 41.7246 40.4023 42.3516 37.5664 42.3516C35.5977 42.3516 33.8047 41.9941 32.1875 41.2793C30.5703 40.5527 29.334 39.5625 28.4785 38.3086C27.6348 37.0547 27.2129 35.6016 27.2129 33.9492H32.5039C32.5039 36.7734 34.1914 38.1855 37.5664 38.1855C38.8203 38.1855 39.7988 37.9336 40.502 37.4297C41.2051 36.9141 41.5566 36.1992 41.5566 35.2852ZM63.7051 35.2852C63.7051 34.2891 63.3535 33.5273 62.6504 33C61.9473 32.4609 60.6816 31.8984 58.8535 31.3125C57.0254 30.7148 55.5781 30.1289 54.5117 29.5547C51.6055 27.9844 50.1523 25.8691 50.1523 23.209C50.1523 21.8262 50.5391 20.5957 51.3125 19.5176C52.0977 18.4277 53.2168 17.5781 54.6699 16.9688C56.1348 16.3594 57.7754 16.0547 59.5918 16.0547C61.4199 16.0547 63.0488 16.3887 64.4785 17.0566C65.9082 17.7129 67.0156 18.6445 67.8008 19.8516C68.5977 21.0586 68.9961 22.4297 68.9961 23.9648H63.7227C63.7227 22.793 63.3535 21.8848 62.6152 21.2402C61.877 20.584 60.8398 20.2559 59.5039 20.2559C58.2148 20.2559 57.2129 20.5312 56.498 21.082C55.7832 21.6211 55.4258 22.3359 55.4258 23.2266C55.4258 24.0586 55.8418 24.7559 56.6738 25.3184C57.5176 25.8809 58.7539 26.4082 60.3828 26.9004C63.3828 27.8027 65.5684 28.9219 66.9395 30.2578C68.3105 31.5938 68.9961 33.2578 68.9961 35.25C68.9961 37.4648 68.1582 39.2051 66.4824 40.4707C64.8066 41.7246 62.5508 42.3516 59.7148 42.3516C57.7461 42.3516 55.9531 41.9941 54.3359 41.2793C52.7188 40.5527 51.4824 39.5625 50.627 38.3086C49.7832 37.0547 49.3613 35.6016 49.3613 33.9492H54.6523C54.6523 36.7734 56.3398 38.1855 59.7148 38.1855C60.9688 38.1855 61.9473 37.9336 62.6504 37.4297C63.3535 36.9141 63.7051 36.1992 63.7051 35.2852ZM87.0312 36.7266H77.7852L76.0273 42H70.4199L79.9473 16.4062H84.834L94.4141 42H88.8066L87.0312 36.7266ZM79.209 32.4551H85.6074L82.3906 22.875L79.209 32.4551Z"
          fill="black"/>
</svg>
